<?xml version="1.0" standalone="no"?>
<!DOCTYPE svg PUBLIC "-//W3C//DTD SVG 20010904//EN"
 "http://www.w3.org/TR/2001/REC-SVG-20010904/DTD/svg10.dtd">
<svg version="1.0" xmlns="http://www.w3.org/2000/svg"
 width="296.000000pt" height="296.000000pt" viewBox="0 0 296.000000 296.000000"
 preserveAspectRatio="xMidYMid meet">
<metadata>
Created by potrace 1.11, written by Peter Selinger 2001-2013
</metadata>
<g transform="translate(0.000000,296.000000) scale(0.100000,-0.100000)"
fill="#000000" stroke="none">
<path d="M1969 2357 c-102 -38 -150 -109 -430 -622 -295 -539 -448 -749 -608
-834 -91 -48 -160 -52 -327 -16 -111 24 -144 27 -234 22 -96 -5 -203 -27 -223
-47 -5 -4 -2 -21 7 -37 l15 -30 68 18 c83 22 213 24 276 5 26 -8 77 -37 114
-64 124 -92 245 -105 379 -42 53 25 90 54 159 124 90 91 153 180 275 388 161
274 346 463 518 529 34 13 89 24 137 26 138 8 256 -46 373 -171 161 -172 314
-488 338 -696 4 -34 10 -58 15 -53 14 15 69 163 69 187 0 13 -38 118 -84 232
-209 523 -348 776 -516 945 -122 123 -231 169 -321 136z"/>
</g>
</svg>
