<svg width="54" height="54" viewBox="0 0 54 54" fill="none" xmlns="http://www.w3.org/2000/svg">
<path d="M28.3499 5.39999H25.6499V17.28H28.3499V5.39999Z" fill="#DBBE3F"/>
<path d="M38.9691 8.96884L36.6309 7.61884L30.6909 17.9072L33.0291 19.2572L38.9691 8.96884Z" fill="#DBBE3F"/>
<path d="M46.3813 17.3691L45.0312 15.0309L34.7429 20.9709L36.0929 23.3091L46.3813 17.3691Z" fill="#DBBE3F"/>
<path d="M48.6001 28.35V25.65H36.7201V28.35H48.6001Z" fill="#DBBE3F"/>
<path d="M45.0311 38.9691L46.3811 36.6309L36.0927 30.6909L34.7427 33.0291L45.0311 38.9691Z" fill="#DBBE3F"/>
<path d="M36.631 46.3812L38.9692 45.0312L33.0292 34.7428L30.691 36.0928L36.631 46.3812Z" fill="#DBBE3F"/>
<path d="M25.6501 48.6H28.3501V36.72H25.6501V48.6Z" fill="#DBBE3F"/>
<path d="M15.0309 45.0312L17.3691 46.3812L23.3091 36.0928L20.9709 34.7428L15.0309 45.0312Z" fill="#DBBE3F"/>
<path d="M7.61875 36.6309L8.96875 38.9691L19.2571 33.0291L17.9071 30.6909L7.61875 36.6309Z" fill="#DBBE3F"/>
<path d="M5.3999 25.65L5.3999 28.35L17.2799 28.35V25.65L5.3999 25.65Z" fill="#DBBE3F"/>
<path d="M8.9689 15.0309L7.6189 17.3691L17.9073 23.3091L19.2573 20.9709L8.9689 15.0309Z" fill="#DBBE3F"/>
<path d="M17.369 7.61884L15.0308 8.96884L20.9708 19.2572L23.309 17.9072L17.369 7.61884Z" fill="#DBBE3F"/>
</svg>
