<svg width="40" height="40" viewBox="0 0 40 40" fill="none" xmlns="http://www.w3.org/2000/svg">
<path d="M40 0H0V40H40V0Z" fill="#4C77A6"/>
<path d="M11.2883 12.9206C12.1573 15.0623 13.2545 17.0812 14.7028 18.8894C14.8959 19.1264 15.1329 19.3458 15.3875 19.5214C15.7561 19.776 16.1073 19.6882 16.2653 19.2581C16.4233 18.8104 16.5725 17.9063 16.5812 17.4323C16.6076 16.2034 16.5812 15.4047 16.511 14.1758C16.4671 13.3946 16.1863 12.7011 15.0364 12.4905C14.6765 12.429 14.6502 12.1306 14.8784 11.8409C15.3524 11.2352 16.0195 11.1387 16.7392 11.0948C17.9067 11.0334 19.0741 11.086 20.2416 11.0948C20.7155 11.0948 21.1983 11.1387 21.6635 11.244C22.278 11.3757 22.6028 11.8058 22.6993 12.4027C22.752 12.7099 22.7783 13.0259 22.7695 13.3419C22.7432 14.6761 22.673 16.0191 22.6554 17.3533C22.6466 17.88 22.6905 18.4154 22.7959 18.9245C22.9539 19.6355 23.4366 19.8198 23.937 19.302C24.569 18.6436 25.122 17.9151 25.6398 17.169C26.5878 15.8084 27.2988 14.3162 27.9045 12.7801C28.2205 11.9901 28.4575 11.8146 29.3177 11.8146C30.924 11.8146 32.5303 11.8058 34.1367 11.8146C34.4175 11.8146 34.716 11.8409 34.9881 11.9287C35.427 12.0691 35.5938 12.4202 35.4972 12.8767C35.2602 13.93 34.6897 14.8341 34.0752 15.6943C33.0921 17.0812 32.0651 18.433 31.0557 19.8023C30.924 19.9778 30.8187 20.1622 30.7134 20.3553C30.3359 21.0312 30.3622 21.4174 30.9152 21.9792C31.7842 22.8833 32.7234 23.7259 33.5661 24.6476C34.1805 25.3235 34.7511 26.052 35.2339 26.8157C35.8483 27.79 35.4709 28.7029 34.321 28.8697C33.6012 28.975 30.0638 28.8697 29.8795 28.8697C28.9315 28.8697 28.0976 28.5361 27.4217 27.8866C26.6756 27.1668 25.9997 26.3768 25.28 25.6307C25.0605 25.4025 24.8323 25.1918 24.5865 24.9987C23.9984 24.551 23.4279 24.6476 23.1557 25.341C22.9188 25.9291 22.7169 27.4828 22.7081 27.6145C22.6554 28.3079 22.2165 28.7468 21.4441 28.7907C19.2058 28.9136 17.0289 28.659 15.01 27.5793C13.2984 26.6577 11.9291 25.3586 10.7353 23.8488C8.84809 21.4437 7.36466 18.8016 6.00412 16.0805C5.93389 15.9401 4.55579 13.0083 4.52068 12.8767C4.3978 12.4115 4.51191 11.9726 4.9069 11.8146C5.15268 11.718 9.69075 11.8146 9.76097 11.8146C10.4895 11.8672 10.9811 12.1745 11.2883 12.9206Z" fill="white"/>
</svg>
