<svg width="120" height="75" viewBox="0 0 120 75" fill="none" xmlns="http://www.w3.org/2000/svg">
<g clip-path="url(#clip0)">
<path d="M112.729 60.791H5.72119V61.0003H112.729V60.791Z" fill="#DBBE3F"/>
<path d="M6.45078 50.8686V50.798C7.66761 50.5428 9.15806 49.814 9.15806 48.0826C9.15806 47.2104 8.7578 46.4453 8.1044 46.0077C7.44932 45.589 6.5783 45.3895 5.19721 45.3895H0.128173V45.9717C1.47186 46.0972 1.59767 46.2081 1.59767 47.7555V54.8586C1.59767 56.3893 1.45309 56.5164 0 56.626V57.2263H4.39686C5.88731 57.2263 7.21372 56.9891 8.1401 56.4625C9.17688 55.896 9.84821 54.9498 9.84821 53.7291C9.84821 51.9634 8.44936 51.1242 6.45078 50.8686ZM3.68728 47.1184C3.68728 46.6637 3.74174 46.4098 3.88868 46.2792C4.01603 46.1704 4.34323 46.0801 4.76125 46.0801C6.03193 46.0801 6.90445 46.8645 6.90445 48.3755C6.90445 49.8873 6.1056 50.6147 4.25224 50.6147H3.68728V47.1184ZM5.08609 56.5164C4.03479 56.534 3.68728 56.1508 3.68728 54.8218V51.3079H4.21506C6.34185 51.3079 7.48651 52.1458 7.48651 53.9132C7.48651 55.7513 6.26815 56.4985 5.08609 56.5164Z" fill="#212B55"/>
<path d="M15.4272 48.9954H15.4084C13.5015 48.9954 11.1919 50.452 11.1919 53.402C11.1919 55.4058 12.6296 57.4439 15.3548 57.4439C17.3714 57.4439 19.4789 56.0061 19.4789 53.0736C19.4789 50.8879 17.8424 48.9954 15.4272 48.9954ZM15.5531 56.7708C14.2817 56.7708 13.4658 55.0231 13.4658 52.7641C13.4658 50.7064 14.2817 49.6668 15.1536 49.6668H15.1722C16.4809 49.6668 17.2076 51.1979 17.2076 53.5656C17.2076 56.1885 16.4079 56.7708 15.5531 56.7708Z" fill="#212B55"/>
<path d="M20.9141 49.7417C22.2228 49.8689 22.277 50.0688 22.277 50.8524C22.277 52.455 21.9312 53.9132 21.5683 54.8034C21.2428 55.6593 20.659 56.4985 20.1152 56.9523V57.264C20.3149 57.3548 20.659 57.4635 20.9686 57.4635C21.2573 57.4635 21.5132 57.3 21.8233 56.8265C22.4402 55.8794 23.1498 53.9295 23.1686 50.6336C23.1854 50.0144 23.257 49.9228 23.8399 49.9228H24.5672C25.1492 49.9228 25.2028 50.05 25.2028 50.7064V55.3699C25.2028 56.4068 25.1289 56.5704 23.968 56.68V57.2264H28.4177V56.68C27.2924 56.5704 27.2008 56.3893 27.2008 55.3861V50.9971C27.2008 49.9956 27.2924 49.8509 28.4177 49.7417V49.2121H20.9141V49.7417Z" fill="#212B55"/>
<path d="M40.7203 55.3698C40.194 54.403 39.8847 53.9132 39.613 53.5292C39.2127 52.9824 38.7052 52.7272 38.3229 52.6356V52.5641C38.6305 52.3273 38.9577 51.945 39.2127 51.5635C39.7394 50.7979 40.1756 50.3436 40.795 50.3436H41.156C41.5734 50.3436 41.7908 50.1608 41.7908 49.7592C41.7908 49.3585 41.5029 49.0125 40.9215 49.0125C40.1397 49.0125 39.6305 49.7417 39.2858 50.2696C38.9227 50.8164 38.3588 51.6731 38.0119 52.0173C37.5411 52.4917 37.1776 52.6176 36.7056 52.6356V50.9426C36.7056 49.9767 36.7773 49.8688 37.7235 49.7592V49.212H33.7054V49.7592C34.6696 49.8508 34.7597 49.9767 34.7597 50.9426V52.6356C34.2898 52.6176 33.9617 52.4917 33.4529 51.9994C33.1086 51.653 32.5622 50.7791 32.1987 50.2336C31.8535 49.7053 31.3274 49.0125 30.5448 49.0125C30.0341 49.0125 29.6559 49.3405 29.6559 49.7417C29.6559 50.0688 29.8735 50.3064 30.3281 50.3064H30.6536C31.2715 50.3064 31.7074 50.7791 32.1987 51.4898C32.5071 51.9266 32.8356 52.3273 33.1611 52.5641V52.6356C32.7788 52.7465 32.2359 52.9824 31.8535 53.5112C31.562 53.9132 31.2901 54.403 30.7462 55.3698C30.1625 56.3893 29.8735 56.644 29.146 56.68V57.2263H30.5643C31.364 57.2263 31.98 57.1539 32.4712 56.1508C32.8356 55.4426 33.1274 54.7122 33.3982 54.1491C33.7246 53.4722 34.1787 53.2021 34.7597 53.22V55.4589C34.7597 56.4436 34.6696 56.5875 33.6345 56.68V57.2263H37.8137V56.68C36.7773 56.5704 36.7056 56.4257 36.7056 55.4589V53.22C37.249 53.2021 37.6142 53.4722 37.9226 54.1299C38.1588 54.6043 38.4844 55.4242 38.9026 56.1508C39.4302 57.1355 40.0667 57.2263 40.8655 57.2263H42.321V56.68C41.593 56.644 41.2846 56.3893 40.7203 55.3698Z" fill="#212B55"/>
<path d="M47.4806 55.9333C46.6079 55.9333 44.882 55.1305 44.882 52.6724C44.882 50.7252 45.771 49.9228 46.6626 49.9228C47.2256 49.9228 47.8257 50.1955 48.4977 50.798C48.6626 50.9427 48.7716 50.9971 48.8801 50.9971C49.1522 50.9971 49.5875 50.5428 49.6059 50.0688C49.6059 49.832 49.5328 49.6497 49.2803 49.4501C48.9685 49.2121 48.3696 48.9954 47.6989 48.9954H47.6818C46.988 48.9954 45.8261 49.2673 44.7359 50.0855C43.5547 50.9795 42.8994 52.2358 42.8994 53.5836C42.8994 55.5694 44.3177 57.4439 46.736 57.4439C47.8257 57.4439 49.0249 56.644 49.8421 55.5146L49.5149 55.0963C48.7886 55.7329 48.2435 55.9333 47.4806 55.9333Z" fill="#212B55"/>
<path d="M57.7108 55.3861C57.1836 54.403 56.9282 53.9132 56.6381 53.5292C56.2378 52.9824 55.6585 52.7465 55.2758 52.6356V52.5641C55.5847 52.3085 55.9285 51.9086 56.2207 51.4898C56.7103 50.7791 57.1294 50.3235 57.7659 50.3235H58.1111C58.5647 50.3235 58.7651 50.0855 58.7651 49.7417C58.7651 49.3405 58.4558 49.0125 57.8748 49.0125C57.1661 49.0125 56.6026 49.6496 56.2207 50.2499C55.8563 50.7979 55.2937 51.6885 54.9652 52.0353C54.4932 52.4917 54.1305 52.6356 53.6768 52.6536V50.9426C53.6768 49.9767 53.7687 49.8688 54.7679 49.7592V49.212H50.569V49.7592C51.622 49.8688 51.7139 49.9596 51.7139 50.9426V55.4785C51.7139 56.4257 51.622 56.5704 50.5156 56.68V57.2263H54.8571V56.68C53.7687 56.5704 53.6768 56.4257 53.6768 55.4785V53.2371C54.2215 53.22 54.5479 53.4722 54.8571 54.1119C55.0951 54.6043 55.4578 55.4426 55.8563 56.1688C56.3839 57.1539 57.0196 57.2263 57.8017 57.2263H59.2546V56.68C58.5442 56.644 58.2747 56.3512 57.7108 55.3861Z" fill="#212B55"/>
<path d="M66.0339 49.3225C66.0139 49.4317 65.9779 49.558 65.9049 49.7229L63.0718 55.7329H63.0342C63.1068 54.4031 63.1068 53.5656 63.1068 52.9825V50.9615C63.1068 49.9596 63.1983 49.832 64.1611 49.7229V49.2121H60.0178V49.7229C61.108 49.832 61.1802 49.9596 61.1802 50.9971V55.4058C61.1802 56.4257 61.108 56.5704 59.9819 56.68V57.2264H63.3072V57.0979C63.3072 56.9344 63.3614 56.7348 63.4524 56.5528L66.2501 50.5976H66.2864C66.2142 51.9805 66.2142 52.5457 66.2142 53.0193V55.4786C66.2142 56.4257 66.1048 56.5704 65.1971 56.68V57.2264H69.3404V56.68C68.2122 56.5704 68.1391 56.4257 68.1391 55.4426V50.8879C68.1391 49.9768 68.2318 49.8141 69.3404 49.7053V49.2121H66.0339V49.3225Z" fill="#212B55"/>
<path d="M75.0998 47.9558C76.5351 47.9558 77.3524 47.2836 77.3524 46.3169C77.3524 45.845 77.082 45.4057 76.5894 45.4057C76.0631 45.4057 75.8094 45.845 75.9367 46.2436C75.9538 46.3545 75.9909 46.4992 75.9909 46.6063C76.0465 46.9908 75.7718 47.2459 75.1182 47.2459H75.0998C74.465 47.2459 74.1549 46.9908 74.21 46.6063C74.2288 46.4821 74.2463 46.3545 74.2634 46.2436C74.3731 45.8613 74.21 45.4057 73.6277 45.4057C73.1207 45.4057 72.8477 45.8613 72.8477 46.3169C72.8477 47.2836 73.6277 47.9558 75.0998 47.9558Z" fill="#212B55"/>
<path d="M76.4456 49.3225C76.4263 49.4317 76.3896 49.558 76.3182 49.7229L73.4834 55.7329H73.4471C73.5202 54.4031 73.5202 53.5656 73.5202 52.9825V50.9615C73.5202 49.9596 73.6107 49.832 74.5728 49.7229V49.2121H70.4303V49.7229C71.5213 49.832 71.5927 49.9596 71.5927 50.9971V55.4058C71.5927 56.4257 71.5213 56.5704 70.3936 56.68V57.2264H73.7197V57.0979C73.7197 56.9344 73.7739 56.7348 73.8649 56.5528L76.6625 50.5976H76.6985C76.6267 51.9805 76.6267 52.5457 76.6267 53.0193V55.4786C76.6267 56.4257 76.5182 56.5704 75.6095 56.68V57.2264H79.7533V56.68C78.6246 56.5704 78.5525 56.4257 78.5525 55.4426V50.8879C78.5525 49.9768 78.6443 49.8141 79.7533 49.7053V49.2121H76.4456V49.3225Z" fill="#212B55"/>
<path d="M92.1635 45.9898L92.7992 46.1165C93.4357 46.2261 93.5079 46.4993 93.2153 47.3907C92.5976 49.1393 91.9265 50.67 91.181 52.455L88.6012 46.9908C88.3291 46.4098 88.3838 46.2081 88.8195 46.0972L89.3449 45.9898V45.3895H84.5664V45.9898C85.7485 46.1542 85.9296 46.3545 86.3119 47.1184C86.7818 48.0483 89.0549 52.7101 89.5094 53.6563C89.7644 54.1843 89.8909 54.5306 89.8909 54.8586C89.8909 55.4426 89.3287 56.3512 88.6913 56.3512C88.4013 56.3512 88.0198 56.2249 87.6926 55.9881C87.3299 55.7513 87.0001 55.7693 86.7297 55.9333C86.4742 56.1148 86.3299 56.4068 86.3849 56.7528C86.4383 57.3372 87.074 57.7179 87.7648 57.7179C88.7097 57.7179 89.7824 57.264 90.8897 54.8766C91.5821 53.4183 93.343 49.2849 94.015 47.8107C94.6694 46.4261 94.8335 46.1704 96.1065 45.9898V45.3895H92.1635V45.9898Z" fill="#212B55"/>
<path d="M96.7407 49.2121C96.7228 49.6497 96.6869 50.7432 96.6143 51.5798L97.1581 51.6367C97.3234 51.0703 97.4306 50.7612 97.5767 50.3964C97.7587 49.9768 98.0688 49.8689 98.6135 49.8689H99.3222V55.4426C99.3222 56.4437 99.2312 56.5704 98.0688 56.68V57.2264H102.647V56.68C101.41 56.5704 101.32 56.4257 101.32 55.4426V49.8689H101.975C102.574 49.8689 102.848 50.0144 103.029 50.3608C103.191 50.67 103.301 51.0703 103.429 51.6367L103.991 51.5798C103.955 50.7432 103.955 49.6497 103.955 49.2121H96.7407Z" fill="#212B55"/>
<path d="M106.898 47.937C107.516 47.937 108.006 47.4455 108.006 46.8469C108.006 46.2261 107.516 45.7517 106.917 45.7517H106.898C106.318 45.7517 105.808 46.2261 105.808 46.8469C105.808 47.4455 106.318 47.937 106.898 47.937Z" fill="#212B55"/>
<path d="M111.86 51.853C111.86 50.3964 110.607 48.9954 108.988 48.9954H108.971C108.026 48.9954 107.026 49.4852 106.243 50.3065C105.482 51.0703 104.955 52.2006 104.955 53.5472C104.955 55.6422 106.281 57.4439 108.625 57.4439C109.318 57.4439 110.678 57.0816 111.787 55.5343L111.479 55.0963C110.841 55.6781 110.151 55.9333 109.441 55.9333C108.154 55.9333 106.953 54.9327 106.898 52.7821C108.825 52.7101 111.06 52.5269 111.368 52.4918C111.752 52.4185 111.86 52.2177 111.86 51.853ZM109.479 51.9086C108.625 51.945 107.826 51.9634 106.989 51.9634C107.153 50.5235 107.844 49.7053 108.588 49.7053H108.607C109.406 49.7053 109.879 50.6147 109.879 51.5438C109.879 51.835 109.77 51.9086 109.479 51.9086Z" fill="#212B55"/>
<path d="M110.391 47.937C111.007 47.937 111.499 47.4455 111.499 46.8469C111.499 46.2261 111.007 45.7517 110.407 45.7517H110.391C109.806 45.7517 109.298 46.2261 109.298 46.8469C109.298 47.4455 109.806 47.937 110.391 47.937Z" fill="#212B55"/>
<path d="M119.674 55.0963C118.947 55.7329 118.4 55.9333 117.638 55.9333C116.767 55.9333 115.042 55.1305 115.042 52.6724C115.042 50.7252 115.931 49.9228 116.82 49.9228C117.384 49.9228 117.984 50.1955 118.656 50.798C118.819 50.9427 118.929 50.9971 119.038 50.9971C119.311 50.9971 119.745 50.5428 119.764 50.0688C119.764 49.832 119.692 49.6497 119.437 49.4501C119.128 49.2121 118.528 48.9954 117.857 48.9954H117.837C117.149 48.9954 115.984 49.2673 114.894 50.0855C113.714 50.9795 113.058 52.2358 113.058 53.5836C113.058 55.5694 114.476 57.4439 116.895 57.4439C117.984 57.4439 119.183 56.644 120 55.5146L119.674 55.0963Z" fill="#212B55"/>
<path d="M99.0198 41.0967L93.4685 37.5563C93.4685 37.5563 94.8958 30.7007 87.9151 20.1128C82.2347 11.4965 73.1506 9.36126 63.4363 26.1729C61.4678 29.5776 55.8622 41.858 47.5337 38.8211C44.4465 37.6933 44.8407 35.0563 38.5833 35.6394C34.0598 36.062 27.3461 40.8441 27.3461 40.8441H20.5317C20.5317 40.8441 25.4521 38.8211 29.8692 36.7955C34.6954 34.5862 39.0117 32.7528 44.1282 34.1396C50.1849 35.7846 53.8438 36.2911 62.6789 19.849C70.3926 5.48792 66.2314 12.4402 71.6366 3.29106C75.8824 -3.89815 82.5799 1.42044 87.9142 12.1918C93.3818 23.2383 99.0198 41.0967 99.0198 41.0967Z" fill="#DBBE3F"/>
<path d="M27.5732 65.5129H25.141V65.8615C26.0048 65.9659 26.026 66.0918 25.8043 66.7786C25.499 67.7496 24.9204 69.2696 24.3619 70.7262H24.33C23.8251 69.4383 23.0247 67.3377 22.73 66.5251C22.5717 66.061 22.5822 65.9556 23.3404 65.8615V65.5129H20.4033V65.8615C21.0453 65.924 21.2135 66.0507 21.5294 66.8522C22.0351 68.1084 22.972 70.5566 23.688 72.4885H24.141C24.952 70.3143 25.9732 67.813 26.2891 67.0423C26.7103 66.0507 26.8784 65.9342 27.5732 65.8615V65.5129Z" fill="#212B55"/>
<path d="M29.5852 67.6023H29.5745C28.4687 67.6023 27.1318 68.4458 27.1318 70.1558C27.1318 71.317 27.9638 72.4987 29.5429 72.4987C30.7119 72.4987 31.9328 71.6646 31.9328 69.9657C31.9328 68.6992 30.9855 67.6023 29.5852 67.6023ZM29.6589 72.1082C28.9218 72.1082 28.4478 71.0952 28.4478 69.7859C28.4478 68.5939 28.9218 67.9919 29.4276 67.9919H29.4382C30.1956 67.9919 30.6168 68.8791 30.6168 70.2509C30.6168 71.7708 30.1533 72.1082 29.6589 72.1082Z" fill="#212B55"/>
<path d="M34.3219 71.2322V64.9211C33.817 65.0685 33.0796 65.2269 32.4905 65.2902V65.5754C33.1113 65.649 33.1642 65.6704 33.1642 66.3358V71.2322C33.1642 71.9181 33.0903 71.9704 32.4482 72.0551V72.372H35.0486V72.0551C34.3958 71.9918 34.3219 71.9387 34.3219 71.2322Z" fill="#212B55"/>
<path d="M40.408 67.813L40.3559 67.7393C39.9453 67.7915 39.3973 67.8549 38.8714 67.8763C38.5027 67.6965 38.187 67.6023 37.7867 67.6023H37.776C36.8806 67.6023 35.7969 68.1503 35.7969 69.3432C35.7969 70.0188 36.207 70.5463 36.7867 70.7467C36.6072 70.9471 36.2702 71.2322 35.7653 71.4223C35.7546 71.5482 35.8076 71.7811 35.9122 71.9387C36.0494 72.1716 36.2809 72.3822 36.6914 72.5201C36.439 72.6991 36.1233 72.9098 35.8806 73.1213C35.6914 73.2899 35.5752 73.4698 35.5752 73.7121C35.5859 74.3038 36.207 75 37.492 75C38.8923 75 40.2294 74.0076 40.2294 72.8472C40.2294 71.7708 39.3032 71.5799 38.6497 71.5799C38.3126 71.5799 37.9862 71.591 37.6282 71.591C37.134 71.591 36.9546 71.3804 36.9546 71.2005C36.9546 71.0738 37.0601 70.9368 37.1656 70.852C37.3335 70.8734 37.5129 70.9051 37.6915 70.9051C38.6706 70.9051 39.6399 70.3562 39.6399 69.2379C39.6399 68.8791 39.5241 68.5939 39.3455 68.3824L39.956 68.4252C40.1346 68.3088 40.3349 67.9919 40.408 67.813ZM37.829 72.551H37.8393C38.2502 72.551 38.5027 72.5723 38.7761 72.6563C39.0922 72.7522 39.3242 72.9945 39.3242 73.3636C39.3242 73.9647 38.8398 74.4297 37.976 74.4297C37.1549 74.4297 36.6072 73.945 36.6072 73.4167C36.6072 73.1632 36.7337 72.9517 36.9332 72.7728C37.0917 72.604 37.3233 72.551 37.829 72.551ZM37.8077 70.5352C37.2809 70.5352 36.9862 69.9452 36.9862 69.1745C36.9862 68.3824 37.3335 67.9705 37.6915 67.9705H37.7022C38.2396 67.9705 38.5236 68.5836 38.5236 69.3115C38.5236 70.113 38.2289 70.5352 37.8077 70.5352Z" fill="#212B55"/>
<path d="M44.7995 71.6963C44.6201 71.6963 44.4522 71.5593 44.4522 71.0738V69.2593C44.4522 68.6778 44.357 68.2351 43.9255 67.908C43.6624 67.6965 43.3462 67.6023 42.9566 67.6023C42.3569 67.7179 41.6409 68.0981 41.2722 68.3507C41.0505 68.5202 40.9249 68.647 40.9249 68.826C40.9249 69.0897 41.2616 69.3226 41.5038 69.3226C41.6934 69.3226 41.8301 69.2481 41.8934 69.0049C41.9882 68.6778 42.0835 68.4355 42.1984 68.2882C42.3039 68.1615 42.4308 68.0981 42.5987 68.0981C43.0412 68.0981 43.3253 68.4886 43.3253 69.1848V69.4588C43.0835 69.66 42.283 69.9238 41.6619 70.1447C41.1035 70.3562 40.8403 70.6311 40.8403 71.1688C40.8403 71.8239 41.3671 72.4987 42.209 72.4987C42.4509 72.4987 42.9566 72.1399 43.3676 71.865C43.4099 72.0132 43.4838 72.1502 43.6307 72.2872C43.7572 72.4037 43.9674 72.4987 44.2198 72.4987L45.2728 71.9181L45.1682 71.6013C45.0627 71.6544 44.9256 71.6963 44.7995 71.6963ZM43.3253 71.5165C43.1459 71.6646 42.9357 71.7597 42.7358 71.7597C42.4615 71.7597 42.0621 71.5276 42.0621 70.9582C42.0621 70.5883 42.2514 70.3879 42.6094 70.2192C42.8302 70.1027 43.1258 69.9555 43.3253 69.8493V71.5165Z" fill="#212B55"/>
<path d="M52.2629 72.0765C50.7686 72.0765 49.684 70.7681 49.684 68.8157C49.684 67.2426 50.5576 65.786 52.1689 65.786C53.1058 65.786 53.8533 66.1885 54.169 67.3908L54.527 67.3171C54.4638 66.6946 54.3899 66.2193 54.2959 65.6388C54.0118 65.5754 53.2536 65.3544 52.4 65.3544C49.9467 65.3544 48.2729 66.8419 48.2729 69.0263C48.2729 70.7047 49.4306 72.5304 52.1689 72.5304C52.8956 72.5304 53.8324 72.3189 54.1165 72.2555C54.2959 71.8967 54.5693 71.0952 54.7064 70.5882L54.3591 70.4512C53.8324 71.5062 53.2113 72.0765 52.2629 72.0765Z" fill="#212B55"/>
<path d="M57.1075 71.2322V64.9211C56.6026 65.0685 55.8653 65.2269 55.2758 65.2902V65.5754C55.8969 65.649 55.9499 65.6704 55.9499 66.3358V71.2322C55.9499 71.9181 55.876 71.9704 55.2339 72.0551V72.372H57.8342V72.0551C57.1815 71.9918 57.1075 71.9387 57.1075 71.2322Z" fill="#212B55"/>
<path d="M59.5722 66.7786C59.9515 66.7786 60.2463 66.4728 60.2463 66.1132C60.2463 65.7339 59.9515 65.4376 59.5828 65.4376H59.5722C59.2142 65.4376 58.9092 65.7339 58.9092 66.1132C58.9092 66.4728 59.2142 66.7786 59.5722 66.7786Z" fill="#212B55"/>
<path d="M60.2247 71.2005V67.5912C59.6873 67.771 59.0559 67.908 58.4557 67.9816V68.2779C59.0136 68.361 59.0662 68.4038 59.0662 69.0795V71.2005C59.0662 71.9387 59.0029 71.9918 58.3716 72.0551V72.372H60.9304V72.0551C60.2777 71.9815 60.2247 71.9181 60.2247 71.2005Z" fill="#212B55"/>
<path d="M67.2787 64.9109C66.7939 64.9631 66.341 65.1858 65.8677 65.6388C65.6353 65.3862 65.2351 65.143 64.5507 65.1224C64.0881 65.1644 63.6139 65.3545 63.1718 65.6919C62.7194 66.0293 62.4977 66.3881 62.3507 66.7049C62.2345 66.9686 62.1611 67.2641 62.1611 67.5698V67.7282H61.6869L61.3921 68.087L61.4344 68.2137H62.1611V71.2639C62.1611 71.9181 62.0658 71.9918 61.4767 72.0551V72.372H63.9296V72.0551C63.4037 71.9815 63.3191 71.907 63.3191 71.2639V68.2137H65.0881V71.2639C65.0881 71.9181 65.0142 71.9918 64.5298 72.0551V72.372H67.0673V72.0551C66.341 71.9815 66.2466 71.9284 66.2466 71.2639V68.2137H67.362C67.4992 68.1298 67.5415 67.8344 67.4782 67.7282H66.2466L66.236 67.3591C66.1941 66.4309 66.236 66.0293 66.3197 65.8186C66.3829 65.6285 66.4991 65.4915 66.7409 65.4915C67.057 65.4915 67.3937 65.8074 67.6153 66.019C67.72 66.1243 67.8469 66.1243 67.9631 66.0293C68.0887 65.9445 68.2049 65.8074 68.2574 65.6919C68.3104 65.5651 68.3104 65.4281 68.1942 65.28C68.0049 65.0796 67.6893 64.9211 67.2787 64.9109ZM65.1727 66.8419C65.1197 67.032 65.0881 67.2427 65.0881 67.5278V67.7282H63.3191V67.4328C63.3191 66.8213 63.3828 66.4514 63.5084 66.1132C63.6139 65.8289 63.8241 65.5857 64.1718 65.5857C64.7301 65.5857 65.162 66.0293 65.3513 66.3675C65.2667 66.5362 65.215 66.6518 65.1727 66.8419Z" fill="#212B55"/>
<path d="M76.123 71.6861C75.8911 71.4438 75.6702 71.1269 75.3015 70.5566C74.9858 70.0711 74.5749 69.374 74.4061 69.0469C75.143 68.7412 75.7334 68.2137 75.7334 67.2966C75.7334 66.6415 75.4485 66.1765 75.0277 65.8923C74.6172 65.6071 74.0904 65.5129 73.2169 65.5129H70.3948V65.8494C71.174 65.924 71.2684 66.0087 71.2684 66.8736V71.0002C71.2684 71.8754 71.1638 71.9704 70.3525 72.0346V72.372H73.374V72.0346C72.5641 71.9704 72.4688 71.8754 72.4688 71.0002V69.4066H72.711C73.1323 69.4066 73.3117 69.5436 73.4903 69.8493C73.7957 70.3879 74.1114 70.9899 74.4168 71.454C74.8696 72.1297 75.2806 72.4037 76.4178 72.4568C76.5434 72.4568 76.6596 72.4671 76.7441 72.4671L76.8074 72.1502C76.5647 72.0766 76.3648 71.9498 76.123 71.6861ZM73.9012 68.731C73.6487 68.9425 73.301 69.0152 72.8272 69.0152H72.4688V66.4309C72.4688 66.1886 72.4902 66.0721 72.5641 66.0087C72.6372 65.9445 72.7952 65.9025 73.0797 65.9025C73.7427 65.9025 74.4271 66.3144 74.4271 67.4542C74.4271 68.0022 74.2699 68.4252 73.9012 68.731Z" fill="#212B55"/>
<path d="M81.1875 69.2593C81.1875 68.4141 80.4609 67.6023 79.5232 67.6023H79.5125C78.9653 67.6023 78.3865 67.8875 77.9336 68.361C77.4911 68.8046 77.186 69.4588 77.186 70.2397C77.186 71.454 77.9545 72.4987 79.313 72.4987C79.7133 72.4987 80.5032 72.2872 81.1452 71.3906L80.9658 71.1372C80.5972 71.4754 80.1969 71.6227 79.7868 71.6227C79.0392 71.6227 78.3446 71.0421 78.3125 69.797C79.4288 69.7542 80.724 69.6497 80.9026 69.6283C81.1239 69.5855 81.1875 69.4699 81.1875 69.2593ZM79.8082 69.2909C79.313 69.3115 78.8495 69.3226 78.3655 69.3226C78.4595 68.4886 78.8598 68.0133 79.2917 68.0133H79.3023C79.7659 68.0133 80.0393 68.5408 80.0393 69.0794C80.0393 69.2481 79.976 69.2909 79.8082 69.2909Z" fill="#212B55"/>
<path d="M83.8086 69.4485C83.293 69.2267 82.988 68.9844 82.988 68.6153C82.988 68.2351 83.2507 67.9816 83.5771 67.9816C84.0828 67.9816 84.4306 68.4038 84.6831 69.0469L84.9881 68.9527C84.9671 68.7309 84.8411 68.0236 84.7356 67.7915C84.5036 67.6965 84.2191 67.6023 83.7565 67.6023C82.6932 67.6023 82.0396 68.2565 82.0396 69.0469C82.0396 69.9238 82.8402 70.3142 83.3776 70.5669C83.988 70.8623 84.1875 71.1166 84.1875 71.4754C84.1875 71.8436 83.9035 72.1082 83.5454 72.1082C82.914 72.1082 82.4292 71.4223 82.2084 70.7467L81.9136 70.7784C81.9136 71.2425 82.0088 71.9704 82.0819 72.1399C82.2822 72.2975 82.8188 72.4987 83.3669 72.4987C84.2405 72.4987 85.1991 71.9918 85.1991 70.9685C85.1991 70.1875 84.6408 69.8073 83.8086 69.4485Z" fill="#212B55"/>
<path d="M88.4421 67.6023H88.4319C87.3259 67.6023 85.9888 68.4458 85.9888 70.1558C85.9888 71.317 86.821 72.4987 88.3999 72.4987C89.5691 72.4987 90.79 71.6646 90.79 69.9657C90.79 68.6992 89.8425 67.6023 88.4421 67.6023ZM88.5161 72.1082C87.7791 72.1082 87.3049 71.0952 87.3049 69.7859C87.3049 68.5939 87.7791 67.9919 88.2849 67.9919H88.2952C89.0526 67.9919 89.4742 68.8791 89.4742 70.2509C89.4742 71.7708 89.0103 72.1082 88.5161 72.1082Z" fill="#212B55"/>
<path d="M94.5275 67.6023C94.0961 67.6023 93.6642 68.1084 93.3062 68.7198H93.2852V67.5912C92.6855 67.7915 92.116 67.9191 91.5269 67.992V68.2668C92.0635 68.3721 92.1267 68.4141 92.1267 69.0152V71.2742C92.1267 71.9387 92.0319 71.9918 91.4316 72.0551V72.372H94.1482V72.0551C93.3378 71.9918 93.2852 71.9387 93.2852 71.2742V69.3226C93.4847 68.8474 93.7381 68.647 93.9696 68.647C94.1375 68.647 94.2643 68.7198 94.4438 68.8577C94.5062 68.921 94.6117 68.9527 94.7488 68.8996C95.0013 68.7943 95.2012 68.5306 95.2012 68.2137C95.2012 67.8977 94.9274 67.6023 94.5275 67.6023Z" fill="#212B55"/>
<path d="M98.7184 71.6544C98.5497 71.728 98.3497 71.7914 98.1387 71.7914C97.9076 71.7914 97.5389 71.6758 97.5389 70.8418V68.2035H98.5603C98.7184 68.1186 98.7398 67.8446 98.6235 67.7282H97.5389V66.2305L97.392 66.1765L96.3804 66.9575V67.7282H95.9387L95.6431 68.087L95.696 68.2035H96.3804V71.1894C96.3804 72.098 96.8229 72.4987 97.5812 72.4987C97.6654 72.4987 97.823 72.4567 98.0131 72.372L98.8137 71.9815L98.7184 71.6544Z" fill="#212B55"/>
</g>
<defs>
<clipPath id="clip0">
<rect width="120" height="75" fill="white"/>
</clipPath>
</defs>
</svg>
