<svg width="190" height="119" viewBox="0 0 190 119" fill="none" xmlns="http://www.w3.org/2000/svg">
<g clip-path="url(#clip0)">
<path d="M178.488 96.4551H9.05859V96.7872H178.488V96.4551Z" fill="white"/>
<path d="M10.2137 80.7117V80.5996C12.1404 80.1947 14.5003 79.0384 14.5003 76.2912C14.5003 74.9073 13.8665 73.6933 12.832 72.9991C11.7948 72.3347 10.4156 72.0181 8.22891 72.0181H0.20294V72.9419C2.33044 73.1411 2.52965 73.317 2.52965 75.7721V87.0425C2.52965 89.4711 2.30073 89.6729 0 89.8468V90.7993H6.9617C9.32157 90.7993 11.4217 90.4229 12.8885 89.5873C14.5301 88.6885 15.593 87.1872 15.593 85.2503C15.593 82.4488 13.3782 81.1172 10.2137 80.7117ZM5.8382 74.7613C5.8382 74.0398 5.92443 73.637 6.15708 73.4297C6.35871 73.2572 6.87678 73.1138 7.53865 73.1138C9.55055 73.1138 10.9321 74.3584 10.9321 76.7558C10.9321 79.1546 9.6672 80.3088 6.73272 80.3088H5.8382V74.7613ZM8.05298 89.6729C6.38842 89.7008 5.8382 89.0927 5.8382 86.984V81.4086H6.67384C10.0413 81.4086 11.8536 82.7381 11.8536 85.5424C11.8536 88.4589 9.92458 89.6443 8.05298 89.6729Z" fill="white"/>
<path d="M24.4267 77.7393H24.3969C21.3776 77.7393 17.7207 80.0504 17.7207 84.7311C17.7207 87.9104 19.9971 91.1441 24.312 91.1441C27.5049 91.1441 30.8418 88.8629 30.8418 84.21C30.8418 80.742 28.2506 77.7393 24.4267 77.7393ZM24.6259 90.0762C22.6129 90.0762 21.3211 87.3031 21.3211 83.7189C21.3211 80.454 22.6129 78.8045 23.9934 78.8045H24.0229C26.095 78.8045 27.2455 81.2338 27.2455 84.9906C27.2455 89.1523 25.9793 90.0762 24.6259 90.0762Z" fill="white"/>
<path d="M33.114 78.9238C35.1861 79.1256 35.272 79.4429 35.272 80.6861C35.272 83.2289 34.7244 85.5426 34.1499 86.955C33.6344 88.313 32.7101 89.6445 31.8491 90.3647V90.8592C32.1653 91.0032 32.7101 91.1758 33.2002 91.1758C33.6574 91.1758 34.0626 90.9162 34.5536 90.165C35.5303 88.6622 36.6538 85.5685 36.6836 80.3389C36.7102 79.3565 36.8235 79.2112 37.7465 79.2112H38.898C39.8196 79.2112 39.9045 79.4129 39.9045 80.4544V87.8538C39.9045 89.4991 39.7875 89.7587 37.9494 89.9326V90.7995H44.9946V89.9326C43.213 89.7587 43.0679 89.4713 43.0679 87.8796V80.9157C43.0679 79.3267 43.213 79.0971 44.9946 78.9238V78.0835H33.114V78.9238Z" fill="white"/>
<path d="M64.4739 87.8535C63.6406 86.3195 63.1509 85.5424 62.7207 84.933C62.0869 84.0655 61.2834 83.6606 60.678 83.5152V83.4018C61.165 83.0261 61.6831 82.4195 62.0869 81.8142C62.9209 80.5995 63.6115 79.8787 64.5922 79.8787H65.1638C65.8246 79.8787 66.1689 79.5886 66.1689 78.9514C66.1689 78.3155 65.713 77.7666 64.7925 77.7666C63.5547 77.7666 62.7484 78.9235 62.2026 79.7612C61.6276 80.6287 60.7349 81.9881 60.1856 82.5342C59.4402 83.2869 58.8647 83.4867 58.1172 83.5152V80.8291C58.1172 79.2965 58.2308 79.1253 59.729 78.9514V78.0832H53.367V78.9514C54.8936 79.0968 55.0363 79.2965 55.0363 80.8291V83.5152C54.2923 83.4867 53.7728 83.2869 52.9672 82.5057C52.4221 81.9562 51.557 80.5696 50.9814 79.7041C50.4349 78.8658 49.6019 77.7666 48.3628 77.7666C47.5542 77.7666 46.9553 78.2869 46.9553 78.9235C46.9553 79.4426 47.2998 79.8196 48.0195 79.8196H48.5349C49.5133 79.8196 50.2036 80.5696 50.9814 81.6973C51.4697 82.3902 51.9899 83.0261 52.5053 83.4018V83.5152C51.8999 83.6912 51.0403 84.0655 50.4349 84.9045C49.9733 85.5424 49.5427 86.3195 48.6817 87.8535C47.7575 89.4711 47.2998 89.8752 46.1479 89.9323V90.7992H48.3936C49.6597 90.7992 50.6351 90.6843 51.4129 89.0926C51.9899 87.969 52.4519 86.8101 52.8807 85.9167C53.3974 84.8427 54.1164 84.414 55.0363 84.4425V87.9948C55.0363 89.5573 54.8936 89.7856 53.2548 89.9323V90.7992H59.8718V89.9323C58.2308 89.7584 58.1172 89.5288 58.1172 87.9948V84.4425C58.9776 84.414 59.5559 84.8427 60.0443 85.8862C60.4183 86.6389 60.9337 87.9398 61.5959 89.0926C62.4312 90.6551 63.439 90.7992 64.7038 90.7992H67.0083V89.9323C65.8557 89.8752 65.3673 89.4711 64.4739 87.8535Z" fill="white"/>
<path d="M75.1779 88.7474C73.796 88.7474 71.0635 87.4736 71.0635 83.5735C71.0635 80.4838 72.471 79.2108 73.8826 79.2108C74.7741 79.2108 75.7244 79.6435 76.7883 80.5993C77.0494 80.8289 77.2219 80.9152 77.3937 80.9152C77.8246 80.9152 78.5138 80.1944 78.5429 79.4424C78.5429 79.0667 78.4272 78.7773 78.0274 78.4607C77.5338 78.0831 76.5854 77.7393 75.5235 77.7393H75.4964C74.398 77.7393 72.5583 78.1706 70.8321 79.4689C68.9619 80.8874 67.9243 82.8806 67.9243 85.0192C67.9243 88.17 70.1699 91.1441 73.9989 91.1441C75.7244 91.1441 77.623 89.8751 78.9169 88.083L78.3988 87.4193C77.2489 88.4294 76.3859 88.7474 75.1779 88.7474Z" fill="white"/>
<path d="M91.3752 87.8793C90.5406 86.3195 90.1361 85.5424 89.6768 84.933C89.043 84.0655 88.1259 83.6912 87.5198 83.5152V83.4018C88.0089 82.9962 88.5533 82.3617 89.016 81.6973C89.7911 80.5696 90.4546 79.8467 91.4625 79.8467H92.009C92.7273 79.8467 93.0445 79.4691 93.0445 78.9235C93.0445 78.2869 92.5549 77.7666 91.6349 77.7666C90.5128 77.7666 89.6207 78.7775 89.016 79.7299C88.439 80.5995 87.5482 82.0125 87.0281 82.5628C86.2807 83.2869 85.7065 83.5152 84.9881 83.5438V80.8291C84.9881 79.2965 85.1335 79.1253 86.7156 78.9514V78.0832H80.0675V78.9514C81.7347 79.1253 81.8801 79.2693 81.8801 80.8291V88.026C81.8801 89.5288 81.7347 89.7584 79.9829 89.9323V90.7992H86.857V89.9323C85.1335 89.7584 84.9881 89.5288 84.9881 88.026V84.4697C85.8505 84.4425 86.3673 84.8427 86.857 85.8576C87.2337 86.6389 87.8079 87.969 88.439 89.1212C89.2743 90.6843 90.2808 90.7992 91.5193 90.7992H93.8196V89.9323C92.6948 89.8752 92.268 89.4106 91.3752 87.8793Z" fill="white"/>
<path d="M104.554 78.2587C104.522 78.432 104.465 78.6324 104.35 78.8939L99.864 88.4299H99.8045C99.9195 86.3198 99.9195 84.9911 99.9195 84.0658V80.8593C99.9195 79.2696 100.064 79.0671 101.589 78.8939V78.0835H95.0285V78.8939C96.7546 79.0671 96.869 79.2696 96.869 80.9157V87.9108C96.869 89.5291 96.7546 89.7587 94.9717 89.9326V90.7995H100.237V90.5956C100.237 90.3361 100.323 90.0196 100.467 89.7308L104.896 80.2818H104.954C104.839 82.4761 104.839 83.3729 104.839 84.1242V88.0263C104.839 89.5291 104.666 89.7587 103.229 89.9326V90.7995H109.789V89.9326C108.003 89.7587 107.887 89.5291 107.887 87.9693V80.7424C107.887 79.2968 108.034 79.0386 109.789 78.8661V78.0835H104.554V78.2587Z" fill="white"/>
<path d="M118.908 76.0901C121.181 76.0901 122.475 75.0235 122.475 73.4896C122.475 72.741 122.047 72.0439 121.267 72.0439C120.433 72.0439 120.032 72.741 120.233 73.3735C120.26 73.5494 120.319 73.779 120.319 73.9488C120.407 74.5589 119.972 74.9638 118.937 74.9638H118.908C117.903 74.9638 117.412 74.5589 117.499 73.9488C117.529 73.7518 117.557 73.5494 117.584 73.3735C117.758 72.7668 117.499 72.0439 116.577 72.0439C115.775 72.0439 115.342 72.7668 115.342 73.4896C115.342 75.0235 116.577 76.0901 118.908 76.0901Z" fill="white"/>
<path d="M121.038 78.2587C121.008 78.432 120.95 78.6324 120.837 78.8939L116.348 88.4299H116.291C116.407 86.3198 116.407 84.9911 116.407 84.0658V80.8593C116.407 79.2696 116.55 79.0671 118.073 78.8939V78.0835H111.514V78.8939C113.242 79.0671 113.355 79.2696 113.355 80.9157V87.9108C113.355 89.5291 113.242 89.7587 111.456 89.9326V90.7995H116.722V90.5956C116.722 90.3361 116.808 90.0196 116.952 89.7308L121.382 80.2818H121.439C121.325 82.4761 121.325 83.3729 121.325 84.1242V88.0263C121.325 89.5291 121.153 89.7587 119.715 89.9326V90.7995H126.276V89.9326C124.489 89.7587 124.374 89.5291 124.374 87.9693V80.7424C124.374 79.2968 124.52 79.0386 126.276 78.8661V78.0835H121.038V78.2587Z" fill="white"/>
<path d="M145.926 72.9706L146.932 73.1716C147.94 73.3455 148.054 73.779 147.591 75.1933C146.613 77.9678 145.55 80.3965 144.37 83.2286L140.285 74.5588C139.855 73.637 139.941 73.317 140.631 73.1411L141.463 72.9706V72.0181H133.897V72.9706C135.769 73.2314 136.055 73.5493 136.661 74.7613C137.405 76.2368 141.004 83.6335 141.723 85.1348C142.127 85.9725 142.327 86.522 142.327 87.0425C142.327 87.9691 141.437 89.4107 140.428 89.4107C139.969 89.4107 139.365 89.2102 138.847 88.8345C138.273 88.4589 137.75 88.4874 137.322 88.7476C136.918 89.0356 136.689 89.4989 136.776 90.0479C136.861 90.9752 137.867 91.5791 138.961 91.5791C140.457 91.5791 142.156 90.859 143.909 87.071C145.005 84.7571 147.793 78.1988 148.857 75.8598C149.893 73.6628 150.153 73.2572 152.169 72.9706V72.0181H145.926V72.9706Z" fill="white"/>
<path d="M153.173 78.0835C153.144 78.7778 153.088 80.5128 152.973 81.8403L153.834 81.9306C154.095 81.0319 154.265 80.5414 154.497 79.9625C154.785 79.2968 155.276 79.1256 156.138 79.1256H157.26V87.9693C157.26 89.5576 157.116 89.7587 155.276 89.9326V90.7995H162.524V89.9326C160.566 89.7587 160.424 89.5291 160.424 87.9693V79.1256H161.46C162.408 79.1256 162.842 79.3565 163.129 79.9062C163.386 80.3967 163.56 81.0319 163.763 81.9306L164.652 81.8403C164.596 80.5128 164.596 78.7778 164.596 78.0835H153.173Z" fill="white"/>
<path d="M169.255 76.0602C170.234 76.0602 171.01 75.2803 171.01 74.3305C171.01 73.3455 170.234 72.5928 169.285 72.5928H169.255C168.336 72.5928 167.529 73.3455 167.529 74.3305C167.529 75.2803 168.336 76.0602 169.255 76.0602Z" fill="white"/>
<path d="M177.112 82.2732C177.112 79.9621 175.127 77.7393 172.564 77.7393H172.537C171.041 77.7393 169.458 78.5164 168.219 79.8195C167.013 81.0314 166.179 82.8249 166.179 84.9614C166.179 88.2854 168.279 91.1441 171.989 91.1441C173.086 91.1441 175.24 90.5694 176.996 88.1142L176.508 87.4193C175.499 88.3425 174.406 88.7474 173.281 88.7474C171.244 88.7474 169.343 87.1597 169.256 83.7474C172.306 83.6333 175.846 83.3425 176.333 83.2868C176.94 83.1706 177.112 82.852 177.112 82.2732ZM173.342 82.3616C171.989 82.4193 170.724 82.4485 169.4 82.4485C169.658 80.1639 170.753 78.8657 171.931 78.8657H171.96C173.227 78.8657 173.975 80.3086 173.975 81.7827C173.975 82.2447 173.802 82.3616 173.342 82.3616Z" fill="white"/>
<path d="M174.785 76.0602C175.76 76.0602 176.539 75.2803 176.539 74.3305C176.539 73.3455 175.76 72.5928 174.811 72.5928H174.785C173.86 72.5928 173.055 73.3455 173.055 74.3305C173.055 75.2803 173.86 76.0602 174.785 76.0602Z" fill="white"/>
<path d="M189.484 87.4193C188.332 88.4294 187.467 88.7474 186.261 88.7474C184.88 88.7474 182.149 87.4736 182.149 83.5735C182.149 80.4838 183.557 79.2108 184.966 79.2108C185.858 79.2108 186.807 79.6435 187.871 80.5993C188.13 80.8289 188.305 80.9152 188.477 80.9152C188.909 80.9152 189.597 80.1944 189.626 79.4424C189.626 79.0667 189.512 78.7773 189.109 78.4607C188.62 78.0831 187.67 77.7393 186.607 77.7393H186.576C185.486 77.7393 183.641 78.1706 181.915 79.4689C180.048 80.8874 179.009 82.8806 179.009 85.0192C179.009 88.17 181.254 91.1441 185.084 91.1441C186.807 91.1441 188.706 89.8751 190.001 88.083L189.484 87.4193Z" fill="white"/>
<path d="M156.782 65.2068L147.992 59.5893C147.992 59.5893 150.252 48.7117 139.199 31.9122C130.205 18.2411 115.822 14.8532 100.441 41.5276C97.3242 46.9298 88.4487 66.4147 75.262 61.5961C70.3738 59.8067 70.998 55.6227 61.0903 56.5479C53.9281 57.2184 43.2982 64.806 43.2982 64.806H32.5088C32.5088 64.806 40.2994 61.5961 47.2932 58.3822C54.9346 54.8767 61.7688 51.9678 69.8698 54.1682C79.4596 56.7782 85.2528 57.5819 99.2418 31.4937C111.455 8.7075 104.867 19.7384 113.425 5.22182C120.147 -6.18507 130.752 2.25377 139.198 19.3444C147.855 36.8714 156.782 65.2068 156.782 65.2068Z" fill="white"/>
<path d="M43.6576 103.947H39.8065V104.5C41.1742 104.666 41.2077 104.866 40.8567 105.955C40.3734 107.496 39.4572 109.908 38.5728 112.219H38.5224C37.723 110.175 36.4557 106.843 35.9891 105.553C35.7385 104.817 35.755 104.65 36.9556 104.5V103.947H32.3052V104.5C33.3217 104.599 33.5879 104.8 34.0881 106.072C34.8889 108.065 36.3722 111.95 37.5059 115.015H38.2232C39.5073 111.565 41.1242 107.597 41.6244 106.374C42.2912 104.8 42.5574 104.616 43.6576 104.5V103.947Z" fill="white"/>
<path d="M46.8429 107.263H46.826C45.0753 107.263 42.9585 108.601 42.9585 111.314C42.9585 113.157 44.2758 115.032 46.776 115.032C48.6269 115.032 50.56 113.708 50.56 111.013C50.56 109.003 49.0601 107.263 46.8429 107.263ZM46.9597 114.412C45.7925 114.412 45.0421 112.805 45.0421 110.727C45.0421 108.836 45.7925 107.881 46.5934 107.881H46.6103C47.8095 107.881 48.4764 109.288 48.4764 111.465C48.4764 113.877 47.7425 114.412 46.9597 114.412Z" fill="white"/>
<path d="M54.3431 113.022V103.008C53.5436 103.242 52.3762 103.493 51.4434 103.594V104.046C52.4263 104.163 52.5101 104.197 52.5101 105.253V113.022C52.5101 114.11 52.3931 114.193 51.3765 114.328V114.83H55.4936V114.328C54.4601 114.227 54.3431 114.143 54.3431 113.022Z" fill="white"/>
<path d="M63.979 107.597L63.8965 107.48C63.2465 107.563 62.3787 107.664 61.5461 107.697C60.9623 107.412 60.4626 107.263 59.8287 107.263H59.8118C58.3941 107.263 56.6782 108.132 56.6782 110.025C56.6782 111.097 57.3275 111.934 58.2453 112.252C57.9612 112.57 57.4276 113.022 56.6281 113.324C56.6112 113.524 56.6951 113.893 56.8608 114.143C57.0779 114.513 57.4445 114.847 58.0945 115.066C57.6948 115.35 57.1949 115.684 56.8107 116.019C56.5111 116.287 56.3271 116.572 56.3271 116.957C56.344 117.896 57.3275 119 59.362 119C61.5792 119 63.6963 117.426 63.6963 115.585C63.6963 113.877 62.2299 113.574 61.195 113.574C60.6614 113.574 60.1446 113.591 59.5778 113.591C58.7952 113.591 58.5112 113.257 58.5112 112.972C58.5112 112.771 58.6782 112.553 58.8453 112.419C59.1111 112.453 59.3952 112.503 59.6779 112.503C61.2282 112.503 62.7629 111.632 62.7629 109.858C62.7629 109.288 62.5796 108.836 62.2969 108.5L63.2634 108.568C63.5461 108.384 63.8634 107.881 63.979 107.597ZM59.8957 115.115H59.9119C60.5626 115.115 60.9623 115.149 61.3952 115.282C61.8958 115.434 62.2631 115.818 62.2631 116.404C62.2631 117.358 61.4961 118.095 60.1284 118.095C58.8284 118.095 57.9612 117.327 57.9612 116.488C57.9612 116.086 58.1615 115.75 58.4774 115.466C58.7283 115.199 59.0949 115.115 59.8957 115.115ZM59.8619 111.916C59.0279 111.916 58.5612 110.98 58.5612 109.757C58.5612 108.5 59.1111 107.847 59.6779 107.847H59.6949C60.5457 107.847 60.9955 108.82 60.9955 109.975C60.9955 111.246 60.5288 111.916 59.8619 111.916Z" fill="white"/>
<path d="M70.9323 113.759C70.6482 113.759 70.3824 113.541 70.3824 112.771V109.892C70.3824 108.969 70.2316 108.267 69.5485 107.748C69.1318 107.412 68.6312 107.263 68.0144 107.263C67.0647 107.446 65.9312 108.049 65.3474 108.45C64.9964 108.719 64.7975 108.92 64.7975 109.204C64.7975 109.623 65.3305 109.992 65.714 109.992C66.0143 109.992 66.2308 109.874 66.3309 109.488C66.481 108.969 66.6319 108.585 66.8138 108.351C66.9809 108.15 67.1818 108.049 67.4476 108.049C68.1483 108.049 68.5981 108.669 68.5981 109.774V110.208C68.2153 110.528 66.9477 110.946 65.9643 111.297C65.0803 111.632 64.6636 112.068 64.6636 112.922C64.6636 113.961 65.4976 115.032 66.8307 115.032C67.2136 115.032 68.0144 114.462 68.6651 114.026C68.732 114.261 68.8491 114.479 69.0817 114.696C69.2819 114.881 69.6147 115.032 70.0145 115.032L71.6817 114.11L71.516 113.608C71.349 113.692 71.1318 113.759 70.9323 113.759ZM68.5981 113.473C68.314 113.708 67.9813 113.859 67.6647 113.859C67.2305 113.859 66.5981 113.491 66.5981 112.587C66.5981 112 66.8977 111.682 67.4645 111.415C67.8142 111.23 68.2822 110.996 68.5981 110.828V113.473Z" fill="white"/>
<path d="M82.7495 114.362C80.3836 114.362 78.6662 112.285 78.6662 109.188C78.6662 106.692 80.0495 104.381 82.6008 104.381C84.0841 104.381 85.2677 105.019 85.7676 106.927L86.3344 106.81C86.2343 105.822 86.1173 105.068 85.9685 104.147C85.5187 104.046 84.3181 103.696 82.9667 103.696C79.0822 103.696 76.4321 106.056 76.4321 109.522C76.4321 112.185 78.2651 115.082 82.6008 115.082C83.7513 115.082 85.2346 114.746 85.6844 114.646C85.9685 114.076 86.4014 112.804 86.6184 112L86.0686 111.783C85.2346 113.457 84.2511 114.362 82.7495 114.362Z" fill="white"/>
<path d="M90.4202 113.022V103.008C89.6207 103.242 88.4533 103.493 87.5199 103.594V104.046C88.5033 104.163 88.5872 104.197 88.5872 105.253V113.022C88.5872 114.11 88.4702 114.193 87.4536 114.328V114.83H91.5708V114.328C90.5373 114.227 90.4202 114.143 90.4202 113.022Z" fill="white"/>
<path d="M94.3222 105.956C94.9228 105.956 95.3895 105.471 95.3895 104.9C95.3895 104.298 94.9228 103.828 94.3391 103.828H94.3222C93.7554 103.828 93.2725 104.298 93.2725 104.9C93.2725 105.471 93.7554 105.956 94.3222 105.956Z" fill="white"/>
<path d="M95.3555 112.971V107.245C94.5046 107.53 93.5049 107.747 92.5546 107.864V108.334C93.4379 108.466 93.5212 108.534 93.5212 109.606V112.971C93.5212 114.143 93.4211 114.227 92.4214 114.327V114.83H96.4729V114.327C95.4394 114.211 95.3555 114.11 95.3555 112.971Z" fill="white"/>
<path d="M106.525 102.992C105.757 103.075 105.04 103.428 104.291 104.147C103.923 103.746 103.289 103.36 102.205 103.328C101.473 103.394 100.722 103.696 100.022 104.231C99.3056 104.767 98.9546 105.336 98.7219 105.839C98.5379 106.257 98.4216 106.726 98.4216 107.211V107.462H97.6708L97.2041 108.032L97.2711 108.233H98.4216V113.072C98.4216 114.11 98.2708 114.227 97.338 114.328V114.83H101.222V114.328C100.389 114.211 100.255 114.093 100.255 113.072V108.233H103.056V113.072C103.056 114.11 102.939 114.227 102.172 114.328V114.83H106.19V114.328C105.04 114.211 104.89 114.127 104.89 113.072V108.233H106.656C106.874 108.099 106.941 107.631 106.84 107.462H104.89L104.874 106.877C104.807 105.404 104.874 104.767 105.006 104.432C105.106 104.131 105.29 103.913 105.673 103.913C106.174 103.913 106.707 104.415 107.058 104.75C107.223 104.917 107.424 104.917 107.608 104.767C107.807 104.632 107.991 104.415 108.074 104.231C108.158 104.03 108.158 103.813 107.974 103.578C107.674 103.26 107.175 103.008 106.525 102.992ZM103.19 106.056C103.106 106.358 103.056 106.692 103.056 107.144V107.462H100.255V106.994C100.255 106.023 100.356 105.436 100.555 104.9C100.722 104.449 101.055 104.063 101.605 104.063C102.489 104.063 103.173 104.767 103.473 105.303C103.339 105.571 103.257 105.754 103.19 106.056Z" fill="white"/>
<path d="M120.528 113.742C120.161 113.357 119.811 112.855 119.227 111.95C118.728 111.179 118.077 110.074 117.81 109.555C118.977 109.069 119.911 108.233 119.911 106.777C119.911 105.738 119.46 105 118.794 104.549C118.144 104.097 117.31 103.947 115.927 103.947H111.459V104.481C112.692 104.599 112.842 104.734 112.842 106.106V112.654C112.842 114.042 112.676 114.193 111.392 114.295V114.83H116.176V114.295C114.893 114.193 114.742 114.042 114.742 112.654V110.125H115.126C115.793 110.125 116.077 110.343 116.36 110.828C116.843 111.682 117.343 112.637 117.827 113.374C118.544 114.446 119.194 114.881 120.995 114.965C121.194 114.965 121.378 114.981 121.512 114.981L121.612 114.478C121.228 114.362 120.911 114.16 120.528 113.742ZM117.01 109.053C116.611 109.389 116.06 109.504 115.31 109.504H114.742V105.404C114.742 105.019 114.776 104.834 114.893 104.734C115.009 104.632 115.259 104.565 115.71 104.565C116.759 104.565 117.843 105.219 117.843 107.027C117.843 107.897 117.594 108.568 117.01 109.053Z" fill="white"/>
<path d="M128.547 109.892C128.547 108.551 127.397 107.263 125.912 107.263H125.895C125.029 107.263 124.112 107.715 123.395 108.467C122.694 109.17 122.211 110.208 122.211 111.447C122.211 113.374 123.428 115.032 125.579 115.032C126.213 115.032 127.464 114.696 128.48 113.273L128.196 112.871C127.612 113.408 126.979 113.642 126.329 113.642C125.146 113.642 124.046 112.721 123.995 110.745C125.762 110.677 127.813 110.511 128.096 110.477C128.446 110.409 128.547 110.226 128.547 109.892ZM126.363 109.942C125.579 109.975 124.845 109.992 124.079 109.992C124.228 108.669 124.862 107.915 125.545 107.915H125.562C126.296 107.915 126.729 108.752 126.729 109.606C126.729 109.874 126.629 109.942 126.363 109.942Z" fill="white"/>
<path d="M132.697 110.192C131.881 109.84 131.398 109.456 131.398 108.87C131.398 108.267 131.814 107.865 132.331 107.865C133.131 107.865 133.682 108.534 134.082 109.555L134.565 109.405C134.532 109.053 134.332 107.931 134.165 107.563C133.798 107.412 133.347 107.263 132.615 107.263C130.931 107.263 129.896 108.301 129.896 109.555C129.896 110.946 131.164 111.566 132.015 111.966C132.981 112.435 133.297 112.839 133.297 113.408C133.297 113.992 132.847 114.412 132.281 114.412C131.281 114.412 130.513 113.324 130.164 112.252L129.697 112.302C129.697 113.038 129.848 114.193 129.963 114.462C130.281 114.712 131.13 115.032 131.998 115.032C133.381 115.032 134.899 114.227 134.899 112.604C134.899 111.365 134.015 110.761 132.697 110.192Z" fill="white"/>
<path d="M140.033 107.263H140.017C138.266 107.263 136.149 108.601 136.149 111.314C136.149 113.157 137.467 115.032 139.966 115.032C141.818 115.032 143.751 113.708 143.751 111.013C143.751 109.003 142.251 107.263 140.033 107.263ZM140.15 114.412C138.984 114.412 138.233 112.805 138.233 110.727C138.233 108.836 138.984 107.881 139.785 107.881H139.801C141 107.881 141.668 109.288 141.668 111.465C141.668 113.877 140.933 114.412 140.15 114.412Z" fill="white"/>
<path d="M149.668 107.262C148.985 107.262 148.301 108.065 147.735 109.035H147.701V107.245C146.752 107.563 145.85 107.765 144.917 107.881V108.317C145.767 108.484 145.867 108.55 145.867 109.504V113.088C145.867 114.143 145.717 114.227 144.767 114.327V114.83H149.068V114.327C147.785 114.227 147.701 114.143 147.701 113.088V109.992C148.017 109.238 148.418 108.92 148.785 108.92C149.051 108.92 149.252 109.035 149.536 109.254C149.635 109.355 149.802 109.405 150.019 109.321C150.418 109.154 150.735 108.735 150.735 108.232C150.735 107.731 150.302 107.262 149.668 107.262Z" fill="white"/>
<path d="M156.304 113.692C156.037 113.809 155.721 113.909 155.387 113.909C155.021 113.909 154.437 113.726 154.437 112.403V108.217H156.054C156.304 108.082 156.338 107.647 156.154 107.462H154.437V105.086L154.204 105L152.602 106.24V107.462H151.903L151.435 108.032L151.519 108.217H152.602V112.954C152.602 114.396 153.303 115.032 154.504 115.032C154.637 115.032 154.887 114.965 155.188 114.831L156.455 114.211L156.304 113.692Z" fill="white"/>
</g>
<defs>
<clipPath id="clip0">
<rect width="190" height="119" fill="white"/>
</clipPath>
</defs>
</svg>
