<svg width="40" height="40" viewBox="0 0 40 40" fill="none" xmlns="http://www.w3.org/2000/svg">
<path d="M40 0H0V40H40V0Z" fill="url(#paint0_radial)"/>
<path d="M39.8947 38.9555V0.359886C39.7279 0.236998 39.5611 0.11411 39.3856 0H0V39.8947H38.3761C38.9203 39.6226 39.4207 39.3066 39.8947 38.9555Z" fill="url(#paint1_radial)"/>
<path d="M20.0132 4.91553C15.914 4.91553 15.3961 4.93308 13.7898 5.0033C12.1835 5.07353 11.0863 5.32808 10.1295 5.70552C9.12883 6.09174 8.28617 6.60962 7.45228 7.45228C6.60962 8.28617 6.09174 9.12882 5.70552 10.1207C5.32808 11.0775 5.07353 12.1747 5.0033 13.781C4.93308 15.3873 4.91553 15.9052 4.91553 20.0044C4.91553 24.1036 4.93308 24.6215 5.0033 26.2278C5.07353 27.8341 5.32808 28.9313 5.70552 29.8881C6.09174 30.88 6.60962 31.7226 7.44351 32.5653C8.28617 33.4079 9.12883 33.9258 10.1207 34.3121C11.0775 34.6895 12.1747 34.944 13.7898 35.0143C15.3961 35.0845 15.914 35.102 20.0132 35.102C24.1124 35.102 24.6303 35.0845 26.2366 35.0143C27.8429 34.944 28.9401 34.6895 29.9057 34.3121C30.8975 33.9258 31.7402 33.4079 32.5741 32.5653C33.4167 31.7226 33.9258 30.88 34.3208 29.8881C34.6895 28.9313 34.9441 27.8341 35.0231 26.2278C35.0933 24.6215 35.1108 24.1036 35.1108 20.0044C35.1108 15.9052 35.0933 15.3873 35.0231 13.781C34.9441 12.1747 34.6895 11.0775 34.3208 10.1207C33.9346 9.12882 33.4167 8.28617 32.5741 7.44351C31.7314 6.60085 30.8975 6.09174 29.8969 5.70552C28.9313 5.32808 27.8341 5.07353 26.2278 5.0033C24.6215 4.93308 24.1124 4.91553 20.0132 4.91553ZM18.6614 7.63662C19.0652 7.63662 19.5129 7.63662 20.0132 7.63662C24.0421 7.63662 24.5249 7.65417 26.1137 7.72439C27.5883 7.79461 28.3871 8.04039 28.9138 8.24228C29.616 8.51439 30.1163 8.83916 30.6518 9.3746C31.1784 9.90126 31.5032 10.4104 31.7841 11.1126C31.9947 11.648 32.2405 12.4468 32.302 13.9127C32.3722 15.5014 32.3897 15.9842 32.3897 20.0132C32.3897 24.0421 32.3722 24.5161 32.302 26.1137C32.2317 27.5883 31.986 28.3871 31.7841 28.9138C31.512 29.616 31.1784 30.1163 30.6518 30.6518C30.1251 31.1784 29.6248 31.5032 28.9138 31.7841C28.3783 31.9947 27.5796 32.2405 26.1137 32.302C24.5249 32.3722 24.0421 32.3897 20.0132 32.3897C15.9842 32.3897 15.5014 32.3722 13.9127 32.302C12.438 32.2317 11.6392 31.986 11.1126 31.7841C10.4104 31.512 9.90126 31.1872 9.3746 30.6518C8.84794 30.1251 8.52316 29.6248 8.24228 28.9138C8.03161 28.3783 7.78584 27.5796 7.72439 26.1137C7.65417 24.5249 7.63662 24.0421 7.63662 20.0132C7.63662 15.9842 7.65417 15.5102 7.72439 13.9127C7.79461 12.438 8.04039 11.6392 8.24228 11.1126C8.51439 10.4104 8.84794 9.90126 9.3746 9.3746C9.90126 8.84794 10.4104 8.52316 11.1126 8.24228C11.648 8.03161 12.4468 7.78584 13.9127 7.72439C15.3083 7.65417 15.8438 7.63662 18.6614 7.63662ZM28.0711 10.147C27.0705 10.147 26.2629 10.9546 26.2629 11.9552C26.2629 12.9559 27.0705 13.7635 28.0711 13.7635C29.0718 13.7635 29.8793 12.9559 29.8793 11.9552C29.8793 10.9546 29.0718 10.1383 28.0711 10.147ZM20.0132 12.2625C15.7297 12.2625 12.2625 15.7297 12.2625 20.0132C12.2625 24.2967 15.7297 27.7639 20.0132 27.7639C24.2967 27.7639 27.7639 24.2967 27.7639 20.0132C27.7639 15.7297 24.2967 12.2625 20.0132 12.2625ZM20.0132 14.9836C22.7957 14.9836 25.0428 17.2394 25.0428 20.0132C25.0428 22.7957 22.7869 25.0428 20.0132 25.0428C17.2306 25.0428 14.9836 22.7869 14.9836 20.0132C14.9836 17.2306 17.2306 14.9836 20.0132 14.9836Z" fill="white"/>
<defs>
<radialGradient id="paint0_radial" cx="0" cy="0" r="1" gradientUnits="userSpaceOnUse" gradientTransform="translate(-3.08092 29.3758) scale(39.4679)">
<stop stop-color="#FFDD55"/>
<stop offset="0.1" stop-color="#FFDD55"/>
<stop offset="0.5" stop-color="#FF543E"/>
<stop offset="1" stop-color="#C837AB"/>
</radialGradient>
<radialGradient id="paint1_radial" cx="0" cy="0" r="1" gradientUnits="userSpaceOnUse" gradientTransform="translate(-0.128005 -0.855353) scale(22.3808)">
<stop stop-color="#3771C8"/>
<stop offset="0.128" stop-color="#3771C8"/>
<stop offset="1" stop-color="#6600FF" stop-opacity="0"/>
</radialGradient>
</defs>
</svg>
