<svg width="40" height="40" viewBox="0 0 40 40" fill="none" xmlns="http://www.w3.org/2000/svg">
<path d="M40 0H0V40H40V0Z" fill="#EC8125"/>
<path d="M18.5296 26.0435C16.2299 25.8065 14.1583 25.2359 12.394 23.8491C12.1746 23.6735 11.9463 23.5067 11.7444 23.3136C10.972 22.5675 10.893 21.7161 11.5075 20.8383C12.0341 20.0834 12.9119 19.8815 13.8335 20.3204C14.0091 20.4082 14.1759 20.5048 14.3427 20.6189C17.6431 22.8923 22.1811 22.9537 25.4991 20.7242C25.8239 20.4696 26.175 20.2678 26.5876 20.1624C27.3776 19.9605 28.1149 20.2502 28.545 20.9436C29.0278 21.7336 29.0278 22.5061 28.4221 23.1205C27.5092 24.0597 26.4032 24.7444 25.1743 25.2184C24.0157 25.666 22.7429 25.8943 21.4877 26.0435C21.6808 26.2541 21.7686 26.3507 21.8827 26.4736C23.5856 28.1852 25.306 29.8969 27.0001 31.6173C27.5794 32.2054 27.7023 32.9252 27.3776 33.6099C27.0264 34.356 26.2452 34.8475 25.4816 34.7948C24.9988 34.7597 24.6214 34.5227 24.279 34.1804C22.9887 32.8813 21.6808 31.6173 20.4168 30.2919C20.0482 29.9057 19.8726 29.9847 19.5478 30.3182C18.2487 31.6524 16.9409 32.9603 15.6154 34.2682C15.0185 34.8563 14.3163 34.9616 13.6229 34.6281C12.8943 34.277 12.4203 33.5221 12.4554 32.776C12.4818 32.2669 12.7276 31.8806 13.0787 31.5295C14.764 29.8442 16.4493 28.1501 18.1346 26.4648C18.2663 26.3331 18.3716 26.219 18.5296 26.0435Z" fill="white"/>
<path d="M19.9338 20.1711C15.8346 20.1535 12.4815 16.7565 12.4991 12.6573C12.5254 8.51426 15.8873 5.16995 20.0216 5.17873C24.1647 5.18751 27.4914 8.58448 27.4739 12.7714C27.4475 16.8706 24.0681 20.1886 19.9338 20.1711ZM23.6556 12.6661C23.6468 10.6297 22.0229 9.00581 19.9953 9.00581C17.9413 9.00581 16.3086 10.656 16.3262 12.71C16.3437 14.7377 17.9764 16.3528 20.0128 16.344C22.0405 16.3352 23.6643 14.7025 23.6556 12.6661Z" fill="white"/>
</svg>
